# xmcd
#
# Track frame offsets: 
#        150
#        22064
#        45209
#        71038
#        94030
#        113698
#        143601
#        174694
#        197143
#        224807
#
# Disc length: 3246 seconds
#
# Revision: 0
# Processed by: cddbd v1.5.2PL0 Copyright (c) Steve Scherf et al.
# Submitted via: ExactAudioCopy v1.1
#
DISCID=900cac0a
DTITLE=Проходной Двор - Блюз В Тысячу Дней
DYEAR=1986
DGENRE=Blues
TTITLE0=Отдавшим сердце рок-н-роллу
TTITLE1=Когда не остаётся слов
TTITLE2=Пессимистический блюз
TTITLE3=Кошка на крыше
TTITLE4=Я собрался не туда
TTITLE5=Рождён чтоб играть
TTITLE6=Сказка о Карле
TTITLE7=И я пою 
TTITLE8=Сказка о Карле (live)
TTITLE9=И я пою (live)
EXTD=
EXTT0=
EXTT1=
EXTT2=
EXTT3=
EXTT4=
EXTT5=
EXTT6=
EXTT7=
EXTT8=
EXTT9=
PLAYORDER=
